<svg xmlns="http://www.w3.org/2000/svg" viewBox="0 0 410 75" aria-hidden="true">
  <path d="M 320,10 L 320,69 L 375,69 L 375,60 L 331,60 L 330,59 L 330,10 Z M 270,10 L 270,69 L 281,69 L 281,10 Z M 192,10 L 192,69 L 242,69 L 242,60 L 204,60 L 203,59 L 203,10 Z M 165,68 L 163,66 L 158,56 L 156,54 L 155,51 L 153,49 L 152,46 L 150,44 L 149,41 L 147,39 L 143,31 L 139,26 L 135,18 L 129,10 L 129,11 L 113,34 L 112,37 L 104,48 L 103,51 L 101,53 L 101,54 L 99,56 L 99,57 L 97,59 L 97,60 L 95,62 L 94,65 L 91,69 L 104,69 L 105,66 L 111,58 L 112,55 L 115,52 L 116,49 L 118,47 L 118,46 L 124,38 L 125,35 L 129,30 L 132,33 L 133,36 L 138,43 L 140,48 L 142,50 L 143,53 L 145,55 L 146,58 L 148,60 L 152,68 L 153,69 L 165,69 Z M 4,10 L 4,69 L 48,69 L 49,68 L 52,68 L 58,65 L 65,59 L 65,58 L 69,53 L 69,51 L 71,47 L 71,42 L 72,41 L 72,39 L 71,38 L 71,32 L 70,31 L 70,29 L 67,23 L 59,15 L 53,12 L 47,11 L 46,10 Z M 14,21 L 15,20 L 45,20 L 46,21 L 48,21 L 52,23 L 57,28 L 60,34 L 60,45 L 59,46 L 58,50 L 54,55 L 47,59 L 44,59 L 43,60 L 15,60 L 14,59 Z" fill="#000" fill-rule="evenodd"/>
</svg>
